<?xml version="1.0" encoding="utf-8"?>
<!-- Generator: Adobe Illustrator 28.3.0, SVG Export Plug-In . SVG Version: 6.00 Build 0)  -->
<svg version="1.1" id="Layer_1" xmlns="http://www.w3.org/2000/svg" xmlns:xlink="http://www.w3.org/1999/xlink" x="0px" y="0px"
	 viewBox="0 0 3097.3418 620.16235" enable-background="new 0 0 3097.3418 620.16235" xml:space="preserve">
<g>
	<g>
		<g>
			<path fill="#555E61" d="M408.60715,292.40289c1.25259-0.47198,2.5184-0.87964,3.7659-1.35141l1.87997-0.66605l1.87091-0.68854
				c2.48944-0.92776,4.97336-1.84824,7.4393-2.81741c4.94159-1.91037,9.82755-3.9296,14.7991-5.87646
				c2.49042-0.96149,5.00195-1.91489,7.57935-2.75784c2.57187-0.85794,5.21176-1.60504,7.92209-2.1774
				c2.70621-0.58737,5.49481-0.93192,8.29904-1.04672c2.80518-0.11124,5.62103,0.05878,8.38815,0.43332
				c5.54373,0.80273,10.81979,2.35907,15.91287,4.50848c2.52847,1.0954,4.9964,2.32315,7.34894,3.68326
				c1.17905,0.67392,2.33795,1.366,3.47894,2.05609c1.13684,0.69681,2.25769,1.39502,3.37439,2.05533
				c1.11868,0.65994,2.22791,1.29227,3.34995,1.86127c1.12262,0.56467,2.2626,1.05023,3.42529,1.45023
				c2.32434,0.79147,4.78534,1.16345,7.32037,1.11475c2.53479-0.02603,5.11395-0.43057,7.67889-0.99109
				c2.56757-0.56546,5.11456-1.32556,7.6673-2.11588c-1.15656,0.67078-2.34344,1.28555-3.54205,1.89044
				c-1.2088,0.57986-2.43774,1.12698-3.69214,1.63089c-2.50812,1.0051-5.14252,1.79007-7.90924,2.18195
				c-1.3822,0.19269-2.79694,0.26825-4.22073,0.21695c-1.42322-0.05246-2.85114-0.25836-4.24438-0.57944
				c-2.79492-0.65146-5.39697-1.7944-7.81995-3.01151c-2.4346-1.21591-4.74258-2.49319-7.06592-3.65762
				c-2.32712-1.15616-4.65009-2.24347-7.0423-3.15567c-2.38174-0.93289-4.81516-1.7218-7.289-2.38568
				c-2.48172-0.68103-4.96091-1.20508-7.45724-1.5585c-4.99088-0.72208-10.01706-0.61221-15.02966,0.28165
				c-5.01553,0.87372-10.0285,2.39041-15.09,3.93985c-5.0629,1.55081-10.17883,3.1308-15.36713,4.43646
				c-2.59299,0.65659-5.20056,1.25992-7.82587,1.77151c-1.31177,0.25897-2.62494,0.50571-3.94202,0.73016
				C411.25238,292.02795,409.93015,292.22321,408.60715,292.40289z"/>
			<path fill="#555E61" d="M420.54819,293.64032c1.67371-0.70926,3.48288-1.11356,5.3031-1.36011
				c1.82498-0.24435,3.6803-0.30984,5.53445-0.23431c3.71088,0.15878,7.40536,0.92325,10.93991,2.13266
				c0.884,0.30295,1.75754,0.63605,2.62238,0.99008l2.4776,1.06583c1.61353,0.67966,3.21799,1.34195,4.84021,1.92615
				c1.62122,0.58459,3.24243,1.13583,4.88516,1.58511c1.63663,0.46902,3.28702,0.86014,4.95303,1.14612
				c3.32352,0.62167,6.70264,0.86209,10.10129,0.80823c1.7001-0.03983,3.40338-0.15225,5.11081-0.33093
				c1.70407-0.19547,3.41464-0.42978,5.11868-0.75302c3.41287-0.62366,6.8194-1.47528,10.21588-2.47681
				c3.40143-0.99344,6.78076-2.15237,10.21927-3.29214c-5.83917,4.26822-12.38168,7.64539-19.46518,9.78058
				c-3.53574,1.07864-7.2251,1.7597-10.97107,2.04626c-1.87506,0.12781-3.76157,0.12939-5.64746,0.04871
				c-1.88492-0.10886-3.76294-0.3414-5.62143-0.66583c-1.85513-0.34515-3.689-0.7897-5.48022-1.34393
				c-1.78729-0.56683-3.5452-1.19974-5.25024-1.93106c-1.70425-0.73193-3.3746-1.51453-4.9903-2.37424l-2.35947-1.25735
				c-0.75458-0.40451-1.51965-0.79129-2.29694-1.15082c-3.09885-1.46445-6.35315-2.62631-9.73837-3.40439
				C427.66422,293.83359,424.15039,293.38449,420.54819,293.64032z"/>
			<path fill="#555E61" d="M478.76932,291.80725c0,6.86636-5.61215,12.43274-12.53531,12.43274s-12.53531-5.56638-12.53531-12.43274
				c0-6.86655,5.61215-12.43292,12.53531-12.43292S478.76932,284.9407,478.76932,291.80725z"/>
			<g>
				<path fill="#FDE239" d="M408.60715,283.43192c5.09146-1.55179,10.14706-3.16,15.13516-4.96228
					c5.00293-1.7579,9.93546-3.69531,14.93304-5.53622c4.98636-1.86069,10.07684-3.60654,15.40399-4.71085
					c5.32047-1.11374,10.89655-1.28671,16.30377-0.53882c2.70383,0.37711,5.367,0.98575,7.96667,1.71667
					c2.60345,0.74219,5.17648,1.61392,7.67676,2.66101c2.49673,1.05499,4.92285,2.26559,7.27441,3.5683
					c1.17648,0.65005,2.33679,1.32004,3.48584,1.99182c1.14453,0.67923,2.27838,1.36304,3.41699,2.01389
					c2.27405,1.30862,4.58304,2.48038,7.01941,3.23752c2.43005,0.77078,4.99939,1.07431,7.58545,0.93942
					c2.5896-0.1008,5.18121-0.60037,7.73199-1.26624c2.55469-0.66544,5.06897-1.52457,7.56726-2.44031
					c-1.18512,0.6055-2.39044,1.17194-3.60828,1.71747c-1.22406,0.52975-2.4646,1.02719-3.72589,1.47961
					c-2.52234,0.89978-5.14435,1.58969-7.85626,1.90683c-2.70776,0.30728-5.51627,0.14456-8.20016-0.53784
					c-2.69083-0.67572-5.19208-1.85336-7.57578-3.08548c-1.19522-0.61868-2.36578-1.25751-3.53278-1.88806
					c-1.16129-0.6402-2.31863-1.26956-3.48367-1.87524c-2.32791-1.21338-4.69269-2.31805-7.11664-3.27087
					c-4.82559-1.92377-9.90741-3.34854-15.01584-4.07495c-2.5563-0.37-5.13467-0.53351-7.71088-0.46841
					c-0.64417,0.00531-1.28732,0.06152-1.93109,0.08914c-0.64334,0.04419-1.28534,0.11517-1.92831,0.17059
					c-1.28278,0.15701-2.56418,0.33746-3.84262,0.56467c-5.1181,0.91238-10.13916,2.55215-15.18744,4.16452
					c-2.52374,0.81296-5.04041,1.67151-7.58228,2.46478c-2.53912,0.80014-5.08792,1.58197-7.65112,2.31192
					C419.02835,281.22137,413.84357,282.48007,408.60715,283.43192z"/>
				<path fill="#FDE239" d="M466.14151,208.12875c0.28284,0.1284,0.49326,0.38638,0.66348,0.64613
					c0.17377,0.26408,0.30295,0.55225,0.4191,0.84492c0.22958,0.58755,0.35995,1.20468,0.4635,1.82141
					c0.19604,1.23643,0.24377,2.48785,0.21597,3.72842c-0.06451,2.48372-0.39941,4.93744-0.82285,7.36435
					c-0.44595,2.42238-0.99878,4.81871-1.63071,7.18921c-0.32169,1.18338-0.64374,2.36674-1.00171,3.5379l-0.98892,3.46689
					c-0.3132,1.15321-0.62402,2.30029-0.89285,3.45093c-0.27515,1.14926-0.52878,2.29594-0.71692,3.44304
					c-0.40097,2.28923-0.6059,4.57788-0.38876,6.80243c0.20828,2.22397,0.89819,4.3779,2.07901,6.36794
					c1.17096,1.99774,2.78705,3.7963,4.51459,5.54749c-2.19913-1.0954-4.27081-2.55826-5.95358-4.50729
					c-1.68945-1.93462-2.87637-4.41182-3.36591-6.99808c-0.50708-2.59081-0.38992-5.21159-0.03531-7.71266
					c0.37357-2.50816,0.9964-4.92699,1.737-7.28407c0.18243-0.59109,0.37653-1.1749,0.57217-1.75967l0.60767-1.73207l0.59149-1.7084
					l0.57767-1.71175c0.75836-2.28549,1.49146-4.5777,2.14725-6.88844c0.65421-2.30936,1.24768-4.63646,1.65396-6.99138
					c0.20099-1.17746,0.34534-2.36201,0.3761-3.55072c0.00848-0.59326-0.02365-1.18575-0.11438-1.77072
					c-0.05087-0.29033-0.11478-0.58183-0.22385-0.85657C466.51367,208.59798,466.38409,208.31653,466.14151,208.12875z"/>
				<path fill="#FDE239" d="M470.39615,259.14371c-0.28146-0.58734-0.46152-1.22656-0.60059-1.86441
					c-0.07297-0.3205-0.13312-0.64258-0.18518-0.96622c-0.06311-0.32405-0.09979-0.6487-0.13196-0.97432
					c-0.07889-0.65263-0.11102-1.30467-0.14969-1.96046c-0.01379-0.65302-0.02151-1.3092,0.00119-1.96085
					c0.04791-2.61703,0.39801-5.20764,0.88278-7.75821c0.13412-0.63429,0.24734-1.27628,0.39938-1.90544
					c0.14398-0.63173,0.30551-1.25911,0.45758-1.88945c0.30511-1.22302,0.61044-2.40068,0.84357-3.61423
					c0.46051-2.41547,0.76089-4.85225,0.79086-7.2896c0.08008-4.86861-0.89383-9.73564-3.06039-14.14668
					c-0.54791-1.09639-1.13229-2.18491-1.81235-3.21956c-0.33548-0.52029-0.68951-1.02994-1.06149-1.52774
					c-0.37-0.49939-0.74335-1.00035-1.14273-1.4812c-1.60031-1.91904-3.39529-3.71974-5.45715-5.24492
					c1.18713,0.49683,2.31036,1.1534,3.38446,1.87862c1.08142,0.71968,2.09735,1.53957,3.06653,2.41783
					c0.97311,0.87531,1.87961,1.83069,2.71408,2.85056c0.83823,1.01672,1.6228,2.08807,2.3129,3.22273
					c1.38712,2.26498,2.4498,4.74692,3.14996,7.32944c0.70825,2.58192,1.04276,5.26167,1.06622,7.92802
					c0.0199,1.33426-0.05798,2.66576-0.19427,3.9866c-0.13293,1.32182-0.33945,2.63242-0.60431,3.92761
					c-0.25995,1.29088-0.59564,2.5847-0.95657,3.82468c-0.3418,1.20842-0.71674,2.40955-1.03546,3.62212
					c-0.67648,2.41783-1.28769,4.8485-1.81134,7.304c-0.13846,0.61436-0.2359,1.23109-0.34869,1.8502
					c-0.10809,0.61752-0.22366,1.24037-0.29349,1.86362C470.46576,256.59552,470.31094,257.85541,470.39615,259.14371z"/>
				<path fill="#FDE239" d="M534.73907,259.91626c-1.57983,0.21616-3.00226,0.89029-4.28918,1.69144
					c-1.28729,0.81299-2.43341,1.81097-3.46198,2.91348c-0.51062,0.55579-1.00781,1.12222-1.45984,1.72931
					c-0.46826,0.59167-0.89526,1.21826-1.31299,1.849c-0.41357,0.6355-0.80762,1.28357-1.17822,1.94806
					c-0.37042,0.63034-0.75128,1.40723-1.19781,2.10324c-0.88123,1.41492-1.95532,2.7695-3.32251,3.89468
					c-1.35852,1.11829-3.05939,1.96124-4.83606,2.22455c-1.77567,0.27811-3.52231,0.04004-5.1037-0.44022
					c-1.58847-0.48596-3.05014-1.20309-4.40729-2.0853c1.60645,0.20395,3.16592,0.45343,4.68872,0.53015
					c1.51907,0.07968,2.99002-0.00058,4.31226-0.38834c2.64917-0.74771,4.67706-2.79831,6.38684-5.24396
					c0.42584-0.62125,0.82703-1.21768,1.27789-1.93637c0.4447-0.68835,0.92969-1.35339,1.4281-2.0076
					c1.01532-1.29562,2.15552-2.5072,3.43536-3.56058c1.2796-1.05045,2.70776-1.93857,4.24615-2.5419
					c0.76959-0.29901,1.56482-0.52701,2.37445-0.65009C533.12274,259.81509,533.94952,259.77466,534.73907,259.91626z"/>
				<path fill="#FDE239" d="M505.3158,273.53336c0.84039-0.25797,1.53305-0.74887,2.21487-1.23071
					c0.67987-0.48477,1.31119-1.0394,1.9429-1.57684c1.2467-1.10883,2.43402-2.28174,3.61365-3.47025
					c1.11475-1.18396,2.44543-2.48825,3.85132-3.60062c1.41272-1.12183,2.9541-2.09753,4.58417-2.89374
					c3.25549-1.60468,6.8938-2.43817,10.47687-2.37683c1.79083,0.02231,3.56665,0.25739,5.27942,0.68835
					c0.85675,0.21359,1.69733,0.48083,2.51385,0.80212c0.81635,0.31772,1.61591,0.6828,2.35925,1.13605
					c-1.68018-0.42996-3.37378-0.66586-5.05908-0.77414c-1.68414-0.10355-3.35962-0.08737-5.00513,0.10355
					c-3.29352,0.34674-6.45355,1.32953-9.32043,2.86218c-1.43109,0.77039-2.80701,1.65121-4.08545,2.67285
					c-1.30463,1.01001-2.42041,2.13324-3.79352,3.32294c-1.35278,1.13821-2.80341,2.1861-4.3913,3.02866
					c-0.80014,0.41278-1.62338,0.78497-2.49591,1.04492c-0.21854,0.06271-0.43985,0.12048-0.65955,0.17258
					c-0.22565,0.04279-0.4483,0.0856-0.67374,0.11575c-0.22565,0.03-0.45166,0.05188-0.68024,0.04794
					C505.76056,273.60339,505.53235,273.59845,505.3158,273.53336z"/>
				<path fill="#FDE239" d="M509.40436,227.87694c-1.73758,1.23584-2.97778,2.95589-3.93552,4.74791
					c-0.9534,1.80701-1.57706,3.75505-1.98175,5.73956c-0.19034,0.9968-0.35324,1.99715-0.43726,3.01151
					c-0.06018,0.50313-0.07712,1.01454-0.11795,1.51965c-0.01263,0.51042-0.03845,1.0173-0.04163,1.52754
					c-0.01221,1.01967,0.01224,2.04073,0.07614,3.06258l0.04318,0.76604l0.05484,0.81633
					c0.04791,0.54829,0.04813,1.10487,0.06094,1.65869c0.00491,2.22101-0.23392,4.51202-1.01474,6.73856
					c-0.39743,1.10486-0.92325,2.19022-1.61453,3.1734c-0.6832,0.98831-1.52969,1.86423-2.46594,2.58649
					c-1.88177,1.45456-4.05624,2.28073-6.19931,2.74878c-2.15414,0.46802-4.31717,0.60489-6.46875,0.51318
					c2.02969-0.72147,4.03986-1.37961,5.91235-2.22476c1.86954-0.83664,3.6026-1.84506,4.94788-3.14874
					c1.35202-1.29639,2.2926-2.88391,2.86084-4.67987c0.59601-1.7869,0.80902-3.75821,0.91138-5.7581
					c0.00671-0.50372,0.03098-1.00568,0.02762-1.51453l0.00119-0.76959l-0.00809-0.82008
					c-0.01202-1.09265,0.04358-2.18904,0.12524-3.28288c0.17337-2.18727,0.58319-4.37099,1.24866-6.478
					c0.68417-2.0999,1.65375-4.12663,2.98663-5.88651c0.66763-0.87668,1.4173-1.68848,2.26242-2.38155
					C507.47171,228.84514,508.39691,228.24063,509.40436,227.87694z"/>
				<path fill="#FDE239" d="M485.03452,263.13071c0.43625-0.39072,0.74255-0.87411,1.04254-1.34787
					c0.29053-0.48203,0.53705-0.98636,0.77512-1.48929c0.47809-1.00604,0.83527-2.07129,1.20053-3.11838
					c0.68793-2.1216,1.23465-4.28836,1.74509-6.4709c0.11142-0.55106,0.23727-1.09798,0.36212-1.6449l0.19662-0.84671
					c0.07199-0.28992,0.13077-0.58301,0.21399-0.87056c0.30237-1.15715,0.67215-2.2997,1.08633-3.42746
					c0.84335-2.24921,1.92062-4.4272,3.26239-6.43776c2.65863-4.04024,6.35846-7.37303,10.55927-9.61197
					c2.10068-1.12144,4.31439-1.99518,6.58527-2.59792c1.13568-0.30017,2.28412-0.53784,3.44086-0.6974
					c1.15399-0.16507,2.31885-0.26566,3.47797-0.23549c-2.25177,0.52089-4.40533,1.29521-6.47522,2.20148
					c-2.06619,0.91515-4.04202,1.98769-5.87567,3.24187c-3.6803,2.48726-6.78806,5.68198-9.08005,9.39186
					c-1.14886,1.85257-2.10938,3.82309-2.87265,5.87802c-0.38678,1.02521-0.73566,2.06795-1.02344,3.13161l-0.4408,1.62221
					c-0.15759,0.56665-0.31439,1.13348-0.48538,1.69579c-0.70728,2.24664-1.58771,4.46172-2.77383,6.53816
					c-0.60608,1.03229-1.26523,2.03699-2.06873,2.94147c-0.20001,0.22543-0.41299,0.44318-0.62247,0.65698
					c-0.22345,0.20609-0.44632,0.40924-0.67966,0.59976l-0.35678,0.2771c-0.12189,0.08896-0.255,0.1655-0.38007,0.24655
					C485.58734,262.90744,485.32462,263.05814,485.03452,263.13071z"/>
				<path fill="#FDE239" d="M394.23364,257.44556c0.78952-0.1416,1.6163-0.10117,2.41983,0.02939
					c0.80942,0.12329,1.60486,0.35107,2.37442,0.65027c1.53839,0.60333,2.96655,1.49124,4.24597,2.54169
					c1.28003,1.05362,2.4202,2.2652,3.43555,3.56079c0.49838,0.65402,0.98337,1.31906,1.42813,2.0076
					c0.45065,0.71869,0.85202,1.31512,1.27765,1.9364c1.70996,2.44543,3.73788,4.49603,6.38687,5.24374
					c1.32242,0.38794,2.79337,0.4682,4.31223,0.38852c1.52301-0.0769,3.08249-0.3262,4.68893-0.53015
					c-1.35715,0.88202-2.81882,1.59915-4.40729,2.08533c-1.58139,0.48026-3.32806,0.71829-5.1037,0.44
					c-1.77664-0.26309-3.47757-1.10605-4.83606-2.22433c-1.3674-1.1254-2.44131-2.47977-3.32254-3.8949
					c-0.44672-0.69601-0.82736-1.4729-1.19778-2.10324c-0.37057-0.66428-0.76465-1.31256-1.17822-1.94785
					c-0.41776-0.63074-0.84476-1.25735-1.31296-1.84921c-0.45227-0.6069-0.94928-1.17334-1.4599-1.72913
					c-1.02856-1.10272-2.17484-2.10068-3.46216-2.91367C397.23569,258.33585,395.81348,257.66153,394.23364,257.44556z"/>
				<path fill="#FDE239" d="M423.65692,271.06268c-0.21655,0.06506-0.44495,0.07001-0.67197,0.07474
					c-0.22858,0.00394-0.45462-0.01813-0.68024-0.04791c-0.22562-0.03018-0.4483-0.07318-0.67374-0.11578
					c-0.21973-0.05206-0.44101-0.10986-0.65955-0.17276c-0.87253-0.25977-1.69577-0.63193-2.49612-1.04492
					c-1.58771-0.84259-3.03833-1.89044-4.39111-3.02847c-1.37311-1.18988-2.48883-2.3129-3.79352-3.32291
					c-1.27844-1.02167-2.6543-1.90268-4.08539-2.67285c-2.86694-1.53287-6.02695-2.51547-9.32068-2.86221
					c-1.64529-0.1911-3.32074-0.20728-5.00488-0.10355c-1.68533,0.10828-3.37894,0.34418-5.05914,0.77393
					c0.74338-0.45322,1.54272-0.81808,2.35925-1.13583c0.81653-0.32129,1.65714-0.58871,2.51389-0.80212
					c1.71274-0.43094,3.48862-0.66605,5.27945-0.68834c3.58307-0.06152,7.22134,0.77217,10.47681,2.37663
					c1.62991,0.7962,3.17145,1.77188,4.58401,2.89392c1.40607,1.1124,2.73676,2.41666,3.8515,3.60062
					c1.17963,1.18832,2.36694,2.36145,3.61365,3.47028c0.63171,0.53723,1.26303,1.09186,1.9429,1.57684
					C422.12387,270.31378,422.81653,270.80469,423.65692,271.06268z"/>
				<path fill="#FDE239" d="M421.41364,227.87694c1.00745,0.36369,1.93265,0.9682,2.76614,1.6656
					c0.84512,0.69307,1.595,1.50487,2.26242,2.38155c1.33289,1.75987,2.30246,3.78661,2.98663,5.88651
					c0.66547,2.10701,1.07529,4.29073,1.24866,6.478c0.08167,1.09384,0.13748,2.19023,0.12524,3.28288l-0.00809,0.82008
					l0.00119,0.76959c-0.00336,0.50885,0.0209,1.0108,0.02762,1.51453c0.10236,1.99989,0.31537,3.97121,0.91138,5.7581
					c0.56824,1.79596,1.50882,3.38348,2.86084,4.67987c1.34528,1.30368,3.07834,2.3121,4.94788,3.14874
					c1.8725,0.84515,3.88266,1.5033,5.91235,2.22476c-2.15158,0.09171-4.31461-0.04517-6.46875-0.51318
					c-2.14307-0.46805-4.31754-1.29422-6.19931-2.74878c-0.93625-0.72226-1.78256-1.59818-2.46576-2.58649
					c-0.69147-0.98318-1.21729-2.06854-1.61472-3.1734c-0.78082-2.22653-1.01965-4.51755-1.01474-6.73856
					c0.01282-0.55382,0.01303-1.1104,0.06094-1.65869l0.05484-0.81633l0.04318-0.76604
					c0.0639-1.02185,0.08835-2.04291,0.07614-3.06258c-0.00317-0.51024-0.02899-1.01712-0.04163-1.52754
					c-0.04083-0.50511-0.05777-1.01653-0.11795-1.51965c-0.08401-1.01436-0.24692-2.01471-0.43726-3.01151
					c-0.40469-1.98451-1.02835-3.93256-1.98175-5.73956C424.39142,230.83282,423.15143,229.11278,421.41364,227.87694z"/>
				<path fill="#FDE239" d="M445.78348,263.13071c-0.2901-0.07257-0.55283-0.22327-0.81335-0.37375
					c-0.12485-0.08105-0.25818-0.15759-0.38007-0.24655l-0.35678-0.2771c-0.23334-0.19052-0.45621-0.39368-0.67966-0.59976
					c-0.20947-0.21381-0.42245-0.43155-0.62247-0.65698c-0.8035-0.90448-1.46265-1.90918-2.06873-2.94147
					c-1.18613-2.07645-2.06656-4.29152-2.77383-6.53816c-0.17099-0.5623-0.32779-1.12914-0.48538-1.69579l-0.4408-1.62221
					c-0.28778-1.06366-0.63666-2.1064-1.02344-3.13161c-0.76328-2.05493-1.72379-4.02545-2.87265-5.87802
					c-2.29199-3.70988-5.39954-6.9046-9.08005-9.39186c-1.83365-1.25418-3.80948-2.32672-5.87564-3.24187
					c-2.06995-0.90627-4.22348-1.68059-6.47525-2.20148c1.1593-0.03017,2.32394,0.07042,3.47794,0.23549
					c1.15677,0.15956,2.30524,0.39723,3.44089,0.6974c2.27087,0.60274,4.48459,1.47647,6.58527,2.59792
					c4.20081,2.23894,7.90063,5.57173,10.55927,9.61197c1.34177,2.01056,2.41904,4.18855,3.26239,6.43776
					c0.41418,1.12776,0.78397,2.27031,1.08633,3.42746c0.08322,0.28755,0.142,0.58064,0.21399,0.87056l0.19684,0.84671
					c0.12463,0.54692,0.25049,1.09384,0.36191,1.6449c0.51044,2.18254,1.05716,4.3493,1.74509,6.4709
					c0.36526,1.04709,0.72244,2.11234,1.20053,3.11838c0.23807,0.50293,0.48459,1.00726,0.77512,1.48929
					C445.04092,262.25659,445.34723,262.73999,445.78348,263.13071z"/>
			</g>
			<g>
				<linearGradient id="SVGID_1_" gradientUnits="userSpaceOnUse" x1="461.70908" y1="307.85233" x2="461.70908" y2="338.30515">
					<stop  offset="0" style="stop-color:#4DD34E"/>
					<stop  offset="1" style="stop-color:#165B16"/>
				</linearGradient>
				<path fill="url(#SVGID_1_)" d="M420.54819,299.71854c0.85873-0.27338,1.7648-0.38718,2.66595-0.46054
					c0.45264-0.04755,0.90451-0.03708,1.3595-0.05719c0.45343-0.0004,0.90686,0.01419,1.36246,0.0209
					c1.81827,0.07632,3.61838,0.3696,5.40231,0.72955c3.55505,0.78339,7.01367,1.98175,10.32477,3.47595l2.44919,1.06366
					c0.80392,0.36646,1.62338,0.68832,2.44092,1.01514l1.22479,0.49152l1.24075,0.44238
					c0.82877,0.28793,1.64511,0.61496,2.48944,0.84946c3.32983,1.09442,6.75076,1.8569,10.20306,2.33618
					c6.91013,1.03012,13.96976,0.59189,20.88049-0.72601c6.92648-1.33759,13.65219-3.7442,20.27814-6.49988
					c-6.08453,3.80042-12.72604,6.85785-19.78546,8.65067c-1.77133,0.41162-3.5322,0.90372-5.3465,1.1319
					c-0.90234,0.1373-1.80209,0.30356-2.70975,0.40967l-2.73535,0.22879c-0.4566,0.03156-0.91202,0.09091-1.36996,0.09467
					l-1.37451,0.01221l-1.37506,0.01126c-0.45816-0.00256-0.91751,0.02484-1.37488-0.01617l-2.74643-0.17889
					c-0.22861-0.01657-0.45816-0.02661-0.68616-0.04892l-0.68222-0.08954l-1.36444-0.18045
					c-7.28958-0.9548-14.26422-3.63831-20.60889-7.01703c-3.1322-1.61688-6.36322-3.05292-9.7244-4.12131
					c-1.67743-0.54141-3.38959-0.98636-5.13251-1.28967l-1.31296-0.1937c-0.43942-0.03867-0.8812-0.10413-1.32358-0.1203
					C422.33115,299.61438,421.43848,299.6059,420.54819,299.71854z"/>
				
					<linearGradient id="SVGID_00000011752585053973343150000011286152972442683551_" gradientUnits="userSpaceOnUse" x1="463.57489" y1="307.85233" x2="463.57489" y2="338.30515">
					<stop  offset="0" style="stop-color:#4DD34E"/>
					<stop  offset="1" style="stop-color:#165B16"/>
				</linearGradient>
				<path fill="url(#SVGID_00000011752585053973343150000011286152972442683551_)" d="M465.35043,372.89001
					c0.2471-0.18185,0.38361-0.45993,0.50116-0.72717c0.11597-0.27197,0.18695-0.56192,0.24493-0.85086
					c0.10513-0.58261,0.15167-1.1741,0.15781-1.76736c-0.00159-1.18909-0.11676-2.37701-0.28876-3.55881
					c-0.34851-2.36438-0.88458-4.70529-1.48178-7.03003c-0.59879-2.32614-1.27548-4.63568-1.97742-6.93893l-0.53549-1.72556
					l-0.54929-1.72241l-0.56506-1.74646c-0.18103-0.58951-0.36072-1.17767-0.52856-1.77328
					c-0.68262-2.37466-1.24591-4.80807-1.55771-7.32452c-0.29309-2.50894-0.34576-5.1319,0.22464-7.7095
					c0.55304-2.57324,1.80029-5.02066,3.53671-6.91327c1.7301-1.90701,3.83731-3.31857,6.06262-4.35956
					c-1.77011,1.70819-3.42981,3.46649-4.64948,5.43484c-1.22934,1.96048-1.97189,4.09686-2.2348,6.31491
					c-0.27158,2.21863-0.12308,4.5116,0.2215,6.80991c0.16016,1.15143,0.38538,2.30405,0.63229,3.45981
					c0.24045,1.15677,0.52286,2.31113,0.80768,3.47165l0.90369,3.49014c0.32898,1.17966,0.62189,2.37051,0.91455,3.56137
					c0.57336,2.3855,1.06723,4.79446,1.4534,7.22708c0.36389,2.43658,0.63821,4.89801,0.64178,7.38229
					c-0.00256,1.24097-0.08105,2.49103-0.3075,3.72211c-0.11853,0.61398-0.26407,1.22775-0.50806,1.8096
					c-0.12326,0.28973-0.25955,0.57452-0.43982,0.83426C465.85297,372.51569,465.6362,372.76852,465.35043,372.89001z"/>
				
					<linearGradient id="SVGID_00000137826391044931403100000007652743192856673208_" gradientUnits="userSpaceOnUse" x1="467.43356" y1="307.85233" x2="467.43356" y2="338.30515">
					<stop  offset="0" style="stop-color:#4DD34E"/>
					<stop  offset="1" style="stop-color:#165B16"/>
				</linearGradient>
				<path fill="url(#SVGID_00000137826391044931403100000007652743192856673208_)" d="M470.85666,321.995
					c-0.11676,1.28552,0.00711,2.54898,0.13058,3.80139c0.05441,0.62482,0.15463,1.25043,0.24753,1.87033
					c0.09763,0.62167,0.17987,1.24075,0.30331,1.85828c0.46292,2.46756,1.01437,4.9126,1.63129,7.34622
					c0.28894,1.22006,0.63431,2.43005,0.94632,3.64658c0.33017,1.24844,0.63409,2.54996,0.86209,3.84695
					c0.23312,1.3013,0.40747,2.61664,0.50787,3.94104c0.10373,1.32401,0.1489,2.65686,0.09622,3.99033
					c-0.08893,2.66498-0.48932,5.33566-1.26068,7.89944c-0.76328,2.56458-1.88651,5.01968-3.32883,7.24994
					c-0.71771,1.11731-1.52853,2.16913-2.39142,3.16495c-0.85931,0.99896-1.78906,1.93185-2.78329,2.7829
					c-0.9903,0.8544-2.02615,1.64905-3.12509,2.34192c-1.09146,0.69858-2.23029,1.32733-3.42944,1.79498
					c2.09872-1.4743,3.93729-3.23022,5.58435-5.10944c0.41122-0.47079,0.79663-0.96246,1.17865-1.45258
					c0.38422-0.48856,0.75067-0.9895,1.09875-1.50131c0.70511-1.0177,1.31613-2.09143,1.89084-3.17422
					c2.27426-4.35638,3.36749-9.198,3.40695-14.06699c0.02997-2.43735-0.21045-4.88104-0.6116-7.30676
					c-0.20334-1.21906-0.47968-2.40381-0.75461-3.63412c-0.13647-0.63373-0.28262-1.26505-0.41083-1.90012
					c-0.13669-0.63272-0.2341-1.27725-0.35263-1.9147c-0.42188-2.56161-0.70847-5.15991-0.69208-7.77734
					c-0.00653-0.65204,0.01733-1.30783,0.04712-1.96027c0.05463-0.6546,0.10297-1.30566,0.19763-1.95612
					c0.04022-0.32486,0.08481-0.6485,0.15601-0.97098c0.05997-0.32205,0.12799-0.64276,0.20868-0.96127
					C470.36517,323.20972,470.56082,322.57504,470.85666,321.995z"/>
				
					<linearGradient id="SVGID_00000054265503424969651220000015032619081059629184_" gradientUnits="userSpaceOnUse" x1="520.11334" y1="307.85233" x2="520.11334" y2="338.30515">
					<stop  offset="0" style="stop-color:#4DD34E"/>
					<stop  offset="1" style="stop-color:#165B16"/>
				</linearGradient>
				<path fill="url(#SVGID_00000054265503424969651220000015032619081059629184_)" d="M535.19922,322.80264
					c-0.79291,0.12207-1.61829,0.06152-2.41846-0.08896c-0.80627-0.14297-1.59576-0.39032-2.35767-0.70844
					c-1.52319-0.64059-2.92908-1.56363-4.18243-2.64505c-1.2536-1.08456-2.36359-2.32394-3.34698-3.64401
					c-0.48206-0.66605-0.95068-1.34293-1.37848-2.04211c-0.43286-0.72955-0.81927-1.33563-1.22968-1.96716
					c-1.64923-2.48688-3.62628-4.58658-6.25616-5.39914c-1.31232-0.42032-2.78091-0.53647-4.30136-0.49408
					c-1.52438,0.03925-3.0896,0.25031-4.70056,0.41479c1.37845-0.84848,2.85727-1.52972,4.45718-1.97665
					c1.59283-0.44101,3.3446-0.63626,5.11298-0.31458c1.76978,0.3067,3.44934,1.19147,4.78003,2.34268
					c1.33923,1.15854,2.37982,2.53894,3.22589,3.97516c0.42938,0.70688,0.79089,1.49265,1.14575,2.13205
					c0.354,0.67334,0.7323,1.3309,1.12988,1.97626c0.40216,0.64078,0.81378,1.27765,1.26721,1.88077
					c0.43726,0.61792,0.92029,1.19638,1.41711,1.76462c1.0011,1.12756,2.12256,2.15335,3.38934,2.99768
					C532.21985,321.83878,533.62512,322.54782,535.19922,322.80264z"/>
				
					<linearGradient id="SVGID_00000124119889745878262790000007854212187356369840_" gradientUnits="userSpaceOnUse" x1="524.37799" y1="307.85233" x2="524.37799" y2="338.30515">
					<stop  offset="0" style="stop-color:#4DD34E"/>
					<stop  offset="1" style="stop-color:#165B16"/>
				</linearGradient>
				<path fill="url(#SVGID_00000124119889745878262790000007854212187356369840_)" d="M506.11911,308.46701
					c0.21814-0.05975,0.44653-0.05914,0.67374-0.05817c0.22858,0.00159,0.45401,0.02917,0.67886,0.06448
					c0.22464,0.03571,0.44614,0.08401,0.67056,0.13254c0.21835,0.0574,0.43826,0.12033,0.65521,0.18857
					c0.86584,0.28125,1.67981,0.67374,2.46951,1.10605c1.56656,0.88123,2.99118,1.96442,4.31558,3.13535
					c1.34351,1.22324,2.43121,2.37326,3.71063,3.41525c1.25305,1.05261,2.60681,1.96716,4.01855,2.77225
					c2.82849,1.60287,5.96344,2.66278,9.2475,3.09018c1.6402,0.23154,3.31482,0.28876,5.00098,0.22662
					c1.6875-0.06686,3.38623-0.26114,5.07666-0.64969c-0.75439,0.43491-1.56244,0.78024-2.38647,1.07767
					c-0.82422,0.30118-1.67114,0.5477-2.53284,0.7402c-1.72278,0.38873-3.50397,0.58005-5.2948,0.55835
					c-3.58344-0.02643-7.20026-0.94925-10.41528-2.63321c-1.60999-0.83603-3.12708-1.84921-4.5116-3.00555
					c-1.37823-1.14651-2.67664-2.48312-3.76178-3.69412c-1.15027-1.21689-2.30838-2.41882-3.52744-3.55783
					c-0.61832-0.55283-1.23566-1.1228-1.90347-1.62418C507.63342,309.25339,506.953,308.74551,506.11911,308.46701z"/>
				
					<linearGradient id="SVGID_00000039107337941634045000000017344111318383001513_" gradientUnits="userSpaceOnUse" x1="497.54181" y1="307.85233" x2="497.54181" y2="338.30515">
					<stop  offset="0" style="stop-color:#4DD34E"/>
					<stop  offset="1" style="stop-color:#165B16"/>
				</linearGradient>
				<path fill="url(#SVGID_00000039107337941634045000000017344111318383001513_)" d="M509.08524,354.21024
					c-0.99817-0.38834-1.9082-1.01535-2.72433-1.73306c-0.82797-0.71356-1.55753-1.5437-2.20343-2.43637
					c-1.28931-1.79202-2.20859-3.84222-2.84109-5.9581c-0.61359-2.12277-0.96957-4.31598-1.08911-6.50659
					c-0.05481-1.09561-0.08362-2.19321-0.04477-3.28506l0.02841-0.81967l0.01776-0.76941
					c0.01578-0.50864,0.00394-1.01099,0.00964-1.51471c-0.05325-2.00208-0.21793-3.97791-0.76978-5.77881
					c-0.52383-1.8092-1.42538-3.41959-2.74503-4.74872c-1.31296-1.33643-3.02078-2.38705-4.8692-3.26926
					c-1.85101-0.8909-3.84442-1.59836-5.85596-2.36932c2.15317-0.03885,4.31223,0.15109,6.45435,0.67175
					c2.13086,0.52069,4.28421,1.39996,6.12988,2.90027c0.9183,0.74515,1.74292,1.64136,2.40167,2.64624
					c0.66702,0.99994,1.16602,2.09772,1.53601,3.21225c0.72601,2.24487,0.90863,4.54102,0.84906,6.76123
					c-0.02643,0.55362-0.04041,1.11002-0.10175,1.65674l-0.07477,0.81476l-0.06192,0.76483
					c-0.08896,1.02008-0.13867,2.04016-0.15149,3.05981c-0.00925,0.51004,0.00397,1.01752,0.00415,1.52814
					c0.02841,0.50589,0.03275,1.01752,0.08047,1.52203c0.05917,1.01593,0.19763,2.0202,0.36328,3.02115
					c0.3558,1.99399,0.93134,3.95682,1.84036,5.78653C506.18085,351.18198,507.37842,352.93198,509.08524,354.21024z"/>
				
					<linearGradient id="SVGID_00000145048132079622980060000003846684911231138698_" gradientUnits="userSpaceOnUse" x1="502.08102" y1="307.85233" x2="502.08102" y2="338.30515">
					<stop  offset="0" style="stop-color:#4DD34E"/>
					<stop  offset="1" style="stop-color:#165B16"/>
				</linearGradient>
				<path fill="url(#SVGID_00000145048132079622980060000003846684911231138698_)" d="M485.58853,318.36853
					c0.28815,0.07968,0.54709,0.23688,0.80389,0.39346c0.12286,0.08423,0.25424,0.16409,0.37375,0.25583l0.35007,0.28577
					c0.22861,0.19644,0.44635,0.40491,0.66467,0.61655c0.20435,0.21893,0.41162,0.44159,0.60608,0.67197
					c0.78125,0.92383,1.41553,1.94449,1.99597,2.99136c1.13486,2.10483,1.96066,4.34103,2.61249,6.60443
					c0.15701,0.56625,0.2998,1.13663,0.44357,1.70703l0.40079,1.63245c0.26151,1.07056,0.58478,2.12161,0.94629,3.15607
					c0.7124,2.07288,1.62439,4.06647,2.72729,5.94666c2.20029,3.76492,5.22855,7.03497,8.84671,9.61218
					c1.80231,1.29855,3.75131,2.4194,5.79419,3.38504c2.04706,0.95676,4.18091,1.78375,6.41925,2.35986
					c-1.15948,0.00156-2.32159-0.12762-3.47101-0.32089c-1.15265-0.18796-2.2948-0.45364-3.42276-0.78162
					c-2.25531-0.65836-4.44711-1.58633-6.51941-2.75885c-4.14456-2.34152-7.76135-5.76404-10.32001-9.86838
					c-1.29227-2.04291-2.31549-4.24673-3.10342-6.51605c-0.38635-1.13742-0.72797-2.28885-1.00192-3.45309
					c-0.07593-0.28955-0.12759-0.5838-0.1925-0.87552l-0.17572-0.85144c-0.11142-0.54968-0.22366-1.09933-0.32169-1.65317
					c-0.45657-2.19437-0.94986-4.37396-1.58551-6.51172c-0.33945-1.05579-0.67038-2.12949-1.12363-3.147
					c-0.22562-0.50864-0.45975-1.01889-0.73843-1.508C486.30939,319.26059,486.01514,318.7699,485.58853,318.36853z"/>
				
					<linearGradient id="SVGID_00000038412188709718669870000013694824841334738588_" gradientUnits="userSpaceOnUse" x1="410.14996" y1="307.85233" x2="410.14996" y2="338.30515">
					<stop  offset="0" style="stop-color:#4DD34E"/>
					<stop  offset="1" style="stop-color:#165B16"/>
				</linearGradient>
				<path fill="url(#SVGID_00000038412188709718669870000013694824841334738588_)" d="M394.67545,321.82202
					c1.58453-0.17731,3.02313-0.81635,4.32919-1.58554c1.30704-0.78101,2.47739-1.75061,3.53278-2.82767
					c0.52402-0.54297,1.03485-1.0972,1.50171-1.69281c0.4826-0.58005,0.92499-1.19601,1.35812-1.81628
					c0.42896-0.62503,0.83899-1.26328,1.22556-1.91846c0.3858-0.62109,0.78558-1.38831,1.24905-2.07309
					c0.91574-1.39304,2.0228-2.72076,3.41721-3.81204c1.38574-1.08456,3.10675-1.88571,4.88931-2.10504
					c1.78198-0.2345,3.52234,0.04636,5.09149,0.56528c1.57587,0.52502,3.01956,1.27783,4.35461,2.19299
					c-1.60092-0.24338-3.1539-0.53094-4.67435-0.64514c-1.51669-0.11716-2.9892-0.07297-4.3205,0.28244
					c-2.66675,0.6824-4.74435,2.6825-6.5137,5.08536c-0.44101,0.61063-0.85675,1.19699-1.32498,1.90445
					c-0.46152,0.67728-0.96268,1.33029-1.47705,1.97189c-1.04688,1.27014-2.21646,2.45352-3.52173,3.47519
					c-1.30487,1.01868-2.75449,1.87149-4.30728,2.43677c-0.7767,0.28006-1.57724,0.48853-2.38965,0.59167
					C396.28879,321.96283,395.46121,321.98294,394.67545,321.82202z"/>
				
					<linearGradient id="SVGID_00000083798755410817205280000005805571952827778979_" gradientUnits="userSpaceOnUse" x1="405.85785" y1="307.85233" x2="405.85785" y2="338.30515">
					<stop  offset="0" style="stop-color:#4DD34E"/>
					<stop  offset="1" style="stop-color:#165B16"/>
				</linearGradient>
				<path fill="url(#SVGID_00000083798755410817205280000005805571952827778979_)" d="M424.42413,308.9317
					c-0.84631,0.23706-1.55099,0.711-2.24445,1.17587c-0.6915,0.46802-1.33624,1.00705-1.98077,1.52872
					c-1.27371,1.07788-2.48944,2.22141-3.69788,3.38034c-1.14352,1.15634-2.50598,2.42749-3.93866,3.50494
					c-1.43979,1.08694-3.00479,2.02457-4.65381,2.78033c-3.29395,1.5242-6.95157,2.26816-10.53207,2.11884
					c-1.78964-0.06625-3.55939-0.34494-5.26089-0.81769c-0.85123-0.23453-1.68512-0.52246-2.49356-0.86368
					c-0.80826-0.33765-1.59854-0.72226-2.33047-1.19363c1.66916,0.47098,3.35626,0.74847,5.03842,0.89798
					c1.68118,0.14496,3.35666,0.17001,5.00607,0.01953c3.30106-0.26587,6.48431-1.17056,9.38812-2.63263
					c1.44946-0.73468,2.84662-1.58157,4.14972-2.57147c1.32913-0.97784,2.47208-2.07327,3.87396-3.22882
					c1.38043-1.10449,2.85629-2.11649,4.46429-2.9198c0.81021-0.39307,1.64233-0.74493,2.521-0.9834
					c0.22009-0.05737,0.44257-0.10965,0.66348-0.1564c0.22659-0.03708,0.45026-0.07452,0.6763-0.099
					c0.22641-0.02444,0.45303-0.04102,0.68143-0.03134C423.98117,308.85065,424.20935,308.8613,424.42413,308.9317z"/>
				
					<linearGradient id="SVGID_00000129887518847676120150000016271491347174339730_" gradientUnits="userSpaceOnUse" x1="433.61267" y1="307.85233" x2="433.61267" y2="338.30515">
					<stop  offset="0" style="stop-color:#4DD34E"/>
					<stop  offset="1" style="stop-color:#165B16"/>
				</linearGradient>
				<path fill="url(#SVGID_00000129887518847676120150000016271491347174339730_)" d="M421.12094,352.04919
					c1.76758-1.19284,3.04956-2.88193,4.0509-4.64987c0.99777-1.78296,1.66895-3.71503,2.12219-5.6893
					c0.21478-0.99167,0.40234-1.98767,0.5112-2.99966c0.0726-0.50156,0.10199-1.01236,0.15524-1.5163
					c0.02524-0.50983,0.06351-1.01611,0.07907-1.52615c0.03729-1.01889,0.03787-2.04034-0.00098-3.06335l-0.02448-0.76703
					l-0.03448-0.81732c-0.03452-0.54929-0.02112-1.10568-0.02032-1.65988c0.0495-2.2204,0.34454-4.50473,1.18002-6.71133
					c0.42444-1.095,0.97668-2.16696,1.69202-3.13297c0.70728-0.97137,1.57489-1.82596,2.52869-2.52515
					c1.91687-1.40781,4.11105-2.18036,6.2648-2.59573c2.16516-0.41498,4.33075-0.4986,6.47955-0.35403
					c-2.04684,0.67139-4.07257,1.28003-5.96518,2.0788c-1.88965,0.7905-3.64697,1.75613-5.02383,3.02649
					c-1.38336,1.26266-2.36279,2.82669-2.97501,4.60788c-0.63962,1.77191-0.90115,3.7373-1.05243,5.73425
					c-0.0191,0.50333-0.0556,1.00467-0.06488,1.51334l-0.01993,0.76938l-0.01202,0.81989
					c-0.0148,1.09265-0.09741,2.18747-0.2059,3.27893c-0.22702,2.18216-0.69031,4.35544-1.40744,6.44547
					c-0.73566,2.08237-1.75455,4.08463-3.13022,5.81116c-0.68893,0.86014-1.45831,1.65338-2.32019,2.32535
					C423.07687,351.12891,422.13708,351.71036,421.12094,352.04919z"/>
				
					<linearGradient id="SVGID_00000070112434202405915840000004493073354297543327_" gradientUnits="userSpaceOnUse" x1="428.90402" y1="307.85233" x2="428.90402" y2="338.30515">
					<stop  offset="0" style="stop-color:#4DD34E"/>
					<stop  offset="1" style="stop-color:#165B16"/>
				</linearGradient>
				<path fill="url(#SVGID_00000070112434202405915840000004493073354297543327_)" d="M446.34933,317.40448
					c-0.44574,0.38007-0.76367,0.85577-1.07529,1.32184c-0.30234,0.47473-0.56131,0.97293-0.81158,1.46994
					c-0.50256,0.99402-0.88577,2.0502-1.27667,3.08801c-0.73981,2.10385-1.3396,4.25681-1.90347,6.42593
					c-0.12503,0.54831-0.26407,1.09186-0.40234,1.63562l-0.21735,0.84158c-0.0791,0.28815-0.14517,0.57947-0.23529,0.86505
					c-0.33075,1.14944-0.72858,2.28253-1.17035,3.39984c-0.89841,2.22769-2.0285,4.37848-3.41959,6.3555
					c-2.75705,3.97379-6.53754,7.21466-10.79199,9.34985c-2.1275,1.0694-4.36212,1.88867-6.647,2.43539
					c-1.14276,0.27219-2.29675,0.48163-3.45706,0.61261c-1.15753,0.13666-2.32452,0.20865-3.48267,0.15009
					c2.26379-0.46527,4.43588-1.18674,6.5275-2.04172c2.08789-0.86426,4.08957-1.88809,5.95337-3.0965
					c3.74045-2.39633,6.92551-5.51376,9.30786-9.16623c1.19403-1.82361,2.20285-3.77005,3.01624-5.80566
					c0.4118-1.01532,0.78635-2.04919,1.10013-3.10556l0.48044-1.61096c0.17142-0.5625,0.34219-1.12521,0.52682-1.68317
					c0.76227-2.2287,1.69675-4.42148,2.93359-6.46814c0.63132-1.01712,1.31491-2.00543,2.1405-2.8898
					c0.20532-0.22052,0.42346-0.43292,0.63824-0.64139c0.22839-0.20059,0.45621-0.39822,0.69424-0.58301l0.36349-0.26825
					c0.12387-0.08578,0.25897-0.15915,0.38599-0.23724C445.7912,317.61414,446.05765,317.47015,446.34933,317.40448z"/>
			</g>
			<path fill="#FDE239" d="M462.5224,288.90198c0.06061,1.48645-0.92096,2.73053-2.19736,2.77097
				c-0.58975,0.02023-1.13504-0.22217-1.55914-0.63419c-0.23428-0.22623-0.42816-0.50085-0.56955-0.81595
				c-0.16562-0.35541-0.26254-0.74725-0.27872-1.17133c-0.01212-0.29083,0.01617-0.56955,0.08078-0.83615
				c0.02423-0.12122,0.05658-0.23428,0.09695-0.34738c0.34335-0.91287,1.10675-1.55914,2.01559-1.59149
				C461.38333,286.23611,462.46179,287.4115,462.5224,288.90198z"/>
			<path fill="#FBBC7B" d="M459.93726,289.63715c0,0.66647-0.49277,1.23199-1.17136,1.40161
				c-0.23428-0.22623-0.42816-0.50085-0.56955-0.81595c-0.16562-0.35541-0.26254-0.74725-0.27872-1.17133
				c-0.01212-0.29083,0.01617-0.56955,0.08078-0.83615c0.10907-0.02426,0.22217-0.03232,0.33527-0.03232
				C459.22232,288.18301,459.93726,288.83334,459.93726,289.63715z"/>
		</g>
		
			<linearGradient id="SVGID_00000036212668202226079120000015994858279020255420_" gradientUnits="userSpaceOnUse" x1="268.56165" y1="-35.73988" x2="400.8205" y2="458.65637">
			<stop  offset="0" style="stop-color:#4DD34E"/>
			<stop  offset="1" style="stop-color:#165B16"/>
		</linearGradient>
		<path fill="url(#SVGID_00000036212668202226079120000015994858279020255420_)" d="M734.80603,313.24503
			c-0.24963-1.76297-0.51776-3.52353-0.80426-5.28119c-4.27417-26.22366-12.69391-51.74051-24.95679-75.31491
			c-5.59833-10.7623-11.98901-21.11089-19.09253-30.94437c-27.68414-38.32439-67.12329-67.37894-110.96198-84.68279
			c-55.90295-22.0666-119.71475-25.3023-176.75977-5.51857c-88.11371,30.55852-153.33073,109.61653-166.47067,201.9494
			c-10.72169,75.33942,17.42603,146.93356,63.87775,200.04953C220.40114,461.875,169.61131,368.12729,183.81412,268.32455
			C203.34943,131.04836,330.47067,35.6004,467.74686,55.13594c47.08719,6.70109,92.24448,26.76542,126.5217,54.86329
			c-2.99426-3.99586-6.17328-7.84204-9.43445-11.62287c-10.87012-12.60213-22.9574-24.1426-36.02228-34.45058
			c-23.09235-18.21897-49.13632-32.51752-76.6727-42.79835C416.84808,0.48456,356.15521-4.39542,297.88589,3.72194
			C187.19614,19.14199,85.90719,83.63551,34.17522,184.17151C5.84539,239.22748-5.88055,302.98486,2.81486,364.28833
			c11.25265,79.33093,57.78979,151.62347,123.54318,196.9762c12.46747,8.49243,25.41678,16.19489,38.93042,22.90918
			c24.47787,12.16174,50.46898,21.21295,77.1329,27.18512c26.74236,5.98993,54.16463,8.89459,81.56541,8.80139
			c27.64221-0.09369,55.15109-3.32269,82.10919-9.38855c31.31027-7.04492,62.73236-17.97778,90.53159-34.14618
			c21.4129-12.45392,40.97198-28.06879,57.85236-46.19818c17.06232-18.32489,31.35968-39.20081,42.23993-61.7532
			c11.21814-23.25247,18.75891-48.22803,22.39587-73.78403c14.20264-99.80252-32.40533-194.19121-111.64188-245.81879
			c46.45193,53.11642,70.41727,125.35156,59.69595,200.69098c-15.15363,106.48364-96.12598,187.56818-195.2731,209.57281
			c-0.39978-0.07062,0.34647,0.06079,0,0c-6.04434,1.32788-12.15515,2.50415-18.38437,3.38635
			C216.22246,582.16327,89.16668,486.62906,69.72471,349.33942S145.8172,84.99388,283.10672,65.5518
			c15.74377-2.22953,31.33969-2.87773,46.66757-2.19349c-112.2146,37.92966-185.15234,151.39189-167.94003,272.93738
			c16.06224,113.4231,105.59448,198.2587,213.64893,213.38583c-5.7688-3.94397-11.45639-8.01141-17.10422-12.12689
			c-1.63995-1.19501-3.27594-2.39581-4.90726-3.60278c-38.51248-28.49191-66.32266-64.97021-82.07089-110.55884
			c-27.92511-80.83948-8.26379-173.75449,49.68036-236.70654c22.46902-24.41121,50.74564-43.85402,82.61926-53.61255
			c29.60629-9.06419,74.96667-10.61909,103.77328,3.19102c73.15622,35.07187,122.99338,103.66576,135.22263,190.02431
			c17.21246,121.54547-55.7251,235.00751-167.93991,272.93738c15.32788,0.68378,30.9238,0.03558,46.66757-2.19397
			C658.71381,577.59082,754.24799,450.53467,734.80603,313.24503z"/>
		
			<linearGradient id="SVGID_00000038391939087540011510000003398849247815165614_" gradientUnits="userSpaceOnUse" x1="536.25134" y1="-107.35114" x2="668.51019" y2="387.0451">
			<stop  offset="0" style="stop-color:#4DD34E"/>
			<stop  offset="1" style="stop-color:#165B16"/>
		</linearGradient>
		<path fill="url(#SVGID_00000038391939087540011510000003398849247815165614_)" d="M594.26855,109.99923
			c0.11774,0.02547,0.18018,0.03868,0.27051,0.05814C594.38879,110.02518,594.26855,109.99923,594.26855,109.99923z"/>
		
			<linearGradient id="SVGID_00000093153655169668408280000001988133484989149057_" gradientUnits="userSpaceOnUse" x1="593.4505" y1="105.98427" x2="595.62964" y2="114.12994">
			<stop  offset="0" style="stop-color:#4DD34E"/>
			<stop  offset="1" style="stop-color:#165B16"/>
		</linearGradient>
		<path fill="url(#SVGID_00000093153655169668408280000001988133484989149057_)" d="M594.53906,110.05737
			c0,0,0.00146,0.00048,0.00232,0.00048C594.54065,110.05761,594.53979,110.05737,594.53906,110.05737z"/>
		
			<linearGradient id="SVGID_00000036245571771988955120000009754435142654633382_" gradientUnits="userSpaceOnUse" x1="536.61713" y1="-107.44899" x2="668.87604" y2="386.94727">
			<stop  offset="0" style="stop-color:#4DD34E"/>
			<stop  offset="1" style="stop-color:#165B16"/>
		</linearGradient>
		<path fill="url(#SVGID_00000036245571771988955120000009754435142654633382_)" d="M594.54138,110.05785
			C595.55353,110.27552,594.95569,110.14699,594.54138,110.05785L594.54138,110.05785z"/>
	</g>
	<g>
		<g>
			<g>
				
					<linearGradient id="SVGID_00000181068739184789806430000015837889746466150548_" gradientUnits="userSpaceOnUse" x1="1005.31213" y1="251.44356" x2="1005.31213" y2="512.69751">
					<stop  offset="0" style="stop-color:#4DD34E"/>
					<stop  offset="1" style="stop-color:#165B16"/>
				</linearGradient>
				<path fill="url(#SVGID_00000181068739184789806430000015837889746466150548_)" d="M854.10443,325.15186
					c0-20.9408,3.75818-41.80484,11.29163-62.59634c7.52484-20.7787,18.41119-39.43304,32.64825-55.96303
					c14.23712-16.52571,31.66504-29.86487,52.28381-40.0132c20.61871-10.13982,44.01453-15.22038,70.20441-15.22038
					c31.08917,0,57.84418,7.04285,80.2674,21.11145c22.41467,14.07713,39.18994,32.40302,50.31934,54.98616l-43.20178,28.96478
					c-4.58582-10.47253-10.30835-19.30701-17.18274-26.51195c-6.87219-7.19214-14.32019-12.92537-22.33777-17.18265
					c-8.02185-4.24873-16.28479-7.27745-24.79077-9.08188c-8.51453-1.7959-16.8606-2.70026-25.03809-2.70026
					c-17.67322,0-33.30737,3.68138-46.88544,11.04843c-13.58441,7.36276-24.95917,17.10585-34.11786,29.20793
					c-9.16718,12.11487-16.0415,25.69717-20.62085,40.74692c-4.58575,15.05829-6.87219,30.11655-6.87219,45.16629
					c0,17.02481,2.70026,33.22205,8.10071,48.60452c5.40051,15.38675,13.00861,28.96478,22.82843,40.74692
					c9.81775,11.78217,21.4314,21.1925,34.8559,28.22681c13.41589,7.04285,28.14362,10.55786,44.18298,10.55786
					c8.17761,0,16.76892-1.05792,25.77612-3.19083c8.99658-2.12436,17.50476-5.56259,25.52649-10.31042
					c8.01758-4.73932,15.4657-10.7157,22.33789-17.92062c6.87439-7.19214,12.59692-15.86877,17.18262-26.01712l45.65686,26.01712
					c-5.56897,13.09601-13.33911,24.63071-23.31897,34.6127c-9.98621,9.98624-21.19458,18.41119-33.62939,25.28339
					c-12.44128,6.87219-25.69714,12.1106-39.76575,15.71094c-14.07507,3.59607-27.98157,5.40051-41.72809,5.40051
					c-24.22552,0-46.31812-5.23413-66.27563-15.71094c-19.9682-10.47253-37.23615-24.13165-51.79535-40.99435
					c-14.56555-16.85416-25.85712-35.99908-33.87469-57.439C858.11005,369.26025,854.10443,347.41083,854.10443,325.15186z"/>
				
					<linearGradient id="SVGID_00000169524459854169723600000013084738054358839680_" gradientUnits="userSpaceOnUse" x1="1314.58923" y1="251.44356" x2="1314.58923" y2="512.69751">
					<stop  offset="0" style="stop-color:#4DD34E"/>
					<stop  offset="1" style="stop-color:#165B16"/>
				</linearGradient>
				<path fill="url(#SVGID_00000169524459854169723600000013084738054358839680_)" d="M1445.33923,354.10468
					c-0.30017-2.02551-0.6001-4.05106-0.97522-6.07568c0-0.11261-0.03735-0.26279-0.07495-0.37543
					c-0.37512-2.06308-0.8252-4.12524-1.27527-6.18832c-0.48767-1.98798-0.97522-3.97598-1.53772-5.92642
					c0-0.11264-0.0376-0.26279-0.11267-0.37451c-0.5625-2.06308-1.2002-4.08862-1.87537-6.11414
					c-0.67505-2.06308-1.3877-4.08862-2.17542-6.11417c-6.1886-16.20242-15.11536-30.34268-26.74243-42.45743
					c-11.62732-12.11475-25.5426-21.75433-41.70813-28.95541c-16.20288-7.202-34.31897-10.80254-54.27283-10.80254
					c-19.95374,0-38.03223,3.60054-54.23535,10.80254c-16.20312,7.20108-30.11816,16.84067-41.74548,28.95541
					c-11.6272,12.11475-20.51636,26.255-26.74268,42.45743c-0.78748,2.02554-1.50012,4.05109-2.17517,6.11417
					c-0.67517,2.02551-1.31287,4.05106-1.87537,6.11414c-0.07507,0.11172-0.11267,0.26187-0.11267,0.37451
					c-0.5625,1.95044-1.05005,3.93845-1.53772,5.92642c-0.45007,2.06308-0.90015,4.12524-1.27527,6.18832
					c-0.0376,0.11264-0.07495,0.26282-0.07495,0.37543c-0.37512,2.02463-0.67529,4.05017-0.97522,6.07568
					c-0.86279,6.45206-1.31287,13.01581-1.31287,19.65372c0,17.66663,3.11316,34.61993,9.33923,50.82239
					c6.22632,16.20334,15.04041,30.3436,26.51758,42.45834c11.43994,12.11475,25.28003,21.75433,41.48291,28.95541
					c16.20312,7.20108,34.43176,10.80164,54.72302,10.80164c19.95386,0,38.06995-3.60056,54.27283-10.80164
					c16.16553-7.20108,30.08081-16.84067,41.70813-28.95541c11.62708-12.11475,20.55383-26.255,26.74243-42.45834
					c6.22632-16.20245,9.33948-33.15576,9.33948-50.82239C1446.6521,367.12048,1446.20203,360.55673,1445.33923,354.10468z
					 M1385.29016,408.11554c-3.93823,10.46371-9.33923,19.65372-16.20312,27.49213
					c-6.86365,7.87686-14.96533,13.99008-24.30457,18.4166c-9.33923,4.42557-19.39111,6.63882-30.19324,6.63882
					c-10.802,0-20.85388-2.21326-30.19312-6.63882c-9.33923-4.42651-17.40344-10.46466-24.30481-18.15381
					c-6.86365-7.68915-12.26465-16.76559-16.20288-27.26776c-3.90088-10.46466-5.88867-21.90451-5.88867-34.35623
					c0-6.97672,0.67505-13.68973,2.06287-20.14178c0.97522-4.80011,2.36292-9.45187,4.08813-13.99008
					c4.08838-10.61484,9.56445-19.87805,16.4281-27.71738c6.90149-7.87689,15.00293-14.06519,24.30481-18.6785
					c9.33923-4.57578,19.24121-6.86411,29.70557-6.86411c10.80212,0,20.854,2.21326,30.19324,6.63882
					c9.33923,4.4256,17.44092,10.53973,24.30457,18.41571c6.86389,7.83932,12.26489,17.10345,16.20312,27.71829
					c1.72546,4.68839,3.07568,9.48849,4.01331,14.47723c1.27539,6.30188,1.87537,12.86563,1.87537,19.65372
					C1391.17883,386.21103,1389.22864,397.65088,1385.29016,408.11554z"/>
				
					<linearGradient id="SVGID_00000134955288184817901570000011161288751068672922_" gradientUnits="userSpaceOnUse" x1="1565.46497" y1="251.44356" x2="1565.46497" y2="512.69751">
					<stop  offset="0" style="stop-color:#4DD34E"/>
					<stop  offset="1" style="stop-color:#165B16"/>
				</linearGradient>
				<path fill="url(#SVGID_00000134955288184817901570000011161288751068672922_)" d="M1637.63379,291.76773
					c-20.94934,0.66119-39.4458,5.48581-55.47668,14.48239c-16.03943,9.0051-27.6637,21.84515-34.85583,38.53723v157.10089h-54.005
					V245.12973h50.07617v57.439c9.15869-17.67322,20.86401-32.07028,35.10327-43.20401
					c14.23499-11.12096,29.37-16.69209,45.40942-16.69209c3.26758,0,5.9679,0,8.10083,0c2.12427,0,4.00549,0.17064,5.64783,0.49483
					V291.76773z"/>
				
					<linearGradient id="SVGID_00000140711997672996011100000013409741273058281663_" gradientUnits="userSpaceOnUse" x1="1793.49939" y1="251.44356" x2="1793.49939" y2="512.69751">
					<stop  offset="0" style="stop-color:#4DD34E"/>
					<stop  offset="1" style="stop-color:#165B16"/>
				</linearGradient>
				<path fill="url(#SVGID_00000140711997672996011100000013409741273058281663_)" d="M1924.68054,354.10468
					c-0.1499-1.19955-0.29993-2.43759-0.48755-3.63809c-0.45007-3.18753-1.05017-6.33847-1.76282-9.45187
					c-0.1499-0.7124-0.30005-1.4248-0.48755-2.0997c-0.45007-1.91382-0.93774-3.78915-1.46289-5.70114
					c-0.48755-1.61346-0.97522-3.22601-1.46252-4.80103c-0.11267-0.33789-0.2251-0.6749-0.33765-1.01279
					c-0.63757-1.8378-1.27539-3.63806-1.95056-5.43835c-6.07605-15.86545-14.81506-29.78137-26.255-41.74594
					c-11.47717-11.927-25.27979-21.49152-41.48291-28.6926c-16.203-7.202-34.31885-10.80254-54.27271-10.80254
					c-20.2915,0-38.63232,3.52545-54.9856,10.53973c-16.35303,7.05092-30.34314,16.69051-41.97046,28.9554
					c-11.6272,12.30246-20.62903,26.51782-27.005,42.72025c-0.63782,1.65103-1.27539,3.33865-1.83801,5.02631
					c-0.26245,0.67487-0.48743,1.35065-0.71265,2.06308c-0.48743,1.49991-0.9751,3.0383-1.42505,4.53821
					c-0.30017,0.97522-0.56274,1.98801-0.82532,2.96323c-0.4126,1.53745-0.82507,3.07584-1.16272,4.65085
					c-0.41248,1.76273-0.78772,3.52545-1.08765,5.28818c-0.45007,2.21326-0.82532,4.42648-1.12537,6.63882
					c-0.93774,6.60129-1.38782,13.31522-1.38782,20.14178c0,18.00272,3.18835,35.0311,9.56458,51.04672
					c6.37598,16.05319,15.37781,30.11835,27.005,42.23309c11.62732,12.11566,25.61743,21.67926,41.97046,28.73108
					c16.35327,7.01337,34.54419,10.53882,54.49805,10.53882c27.15515,0,50.97205-6.15079,71.45105-18.41571
					c20.44141-12.26489,35.06909-28.05527,43.9209-47.37201l-46.13367-13.2392c-2.62561,5.88794-6.22632,11.28967-10.80212,16.20242
					c-4.61353,4.91367-9.82678,9.07736-15.71545,12.49017c-5.88867,3.45038-12.37756,6.0766-19.39136,7.87686
					c-7.05139,1.80026-14.17761,2.70041-21.37891,2.70041c-9.78955,0-19.20386-1.80026-28.20544-5.40173
					c-9.00183-3.60052-17.0282-8.77609-24.04224-15.45245c-7.05115-6.71393-12.78992-14.66498-17.2157-23.8165
					c-4.38831-9.15244-7.08887-19.46692-8.10168-30.94342h205.72693c0.30005-2.28833,0.63757-5.13892,0.97522-8.58926
					c0.3374-3.45129,0.48755-7.12692,0.48755-11.02689C1925.80591,365.80734,1925.43079,359.91849,1924.68054,354.10468z
					 M1717.15369,354.10468c0.97522-10.80161,3.60046-20.77911,7.87634-29.93063c4.2384-9.15152,9.78931-16.95331,16.6908-23.32935
					c6.86377-6.37601,14.77783-11.36478,23.77942-14.9653c9.00171-3.60056,18.60352-5.40082,28.73059-5.40082
					c10.12695,0,19.80359,1.80026,28.95532,5.40082c9.18933,3.60052,17.17834,8.58929,24.07983,14.9653
					c6.86365,6.37604,12.52722,14.17783,16.91553,23.32935c4.42603,9.15152,7.12646,19.12903,8.10168,29.93063H1717.15369z"/>
				
					<linearGradient id="SVGID_00000122706526812245472810000002401252059745376410_" gradientUnits="userSpaceOnUse" x1="2094.13599" y1="251.44356" x2="2094.13599" y2="512.69751">
					<stop  offset="0" style="stop-color:#4DD34E"/>
					<stop  offset="1" style="stop-color:#165B16"/>
				</linearGradient>
				<path fill="url(#SVGID_00000122706526812245472810000002401252059745376410_)" d="M1973.12158,501.88824V153.32544h54.98608
					v299.95828h187.04248v48.60452H1973.12158z"/>
				
					<linearGradient id="SVGID_00000026138441075613874340000004779189060381795470_" gradientUnits="userSpaceOnUse" x1="2363.9082" y1="251.44356" x2="2363.9082" y2="512.69751">
					<stop  offset="0" style="stop-color:#4DD34E"/>
					<stop  offset="1" style="stop-color:#165B16"/>
				</linearGradient>
				<path fill="url(#SVGID_00000026138441075613874340000004779189060381795470_)" d="M2494.6394,354.10468
					c-0.30029-2.02551-0.6001-4.05106-0.97534-6.07568c0-0.11261-0.0376-0.26279-0.07471-0.37543
					c-0.37524-2.06308-0.78784-4.12524-1.27539-6.18832c-0.4502-1.98798-0.97534-3.97598-1.53784-5.92642
					c0-0.11264-0.03735-0.26279-0.11255-0.37451c-0.52515-1.91382-1.08765-3.82581-1.72534-5.70117
					c-0.07495-0.30035-0.1875-0.63824-0.30005-0.97614c-0.6377-1.87537-1.27515-3.71225-1.98779-5.55099
					c-6.22607-16.20242-15.15283-30.34268-26.78027-42.45743c-11.5896-12.11475-25.50488-21.75433-41.70801-28.95541
					c-16.20312-7.202-34.28125-10.80254-54.27271-10.80254c-19.95386,0-38.03223,3.60054-54.23535,10.80254
					c-16.20312,7.20108-30.11816,16.84067-41.70801,28.95541c-11.62695,12.11475-20.55371,26.255-26.78003,42.45743
					c-0.7876,2.02554-1.50024,4.05109-2.17529,6.11417c-0.67529,2.02551-1.31299,4.05106-1.87549,6.11414
					c-0.03735,0.07507-0.07495,0.1868-0.07495,0.26187c-0.56274,1.98801-1.08765,4.01355-1.53784,6.03906
					c-0.48755,2.06308-0.90015,4.12524-1.27515,6.18832c-0.0376,0.11264-0.0752,0.26282-0.0752,0.37543
					c-0.375,2.02463-0.71265,4.05017-0.9751,6.07568c-0.86279,6.45206-1.31274,13.01581-1.31274,19.65372
					c0,17.66663,3.07568,34.61993,9.30176,50.82239c6.22632,16.20334,15.07788,30.3436,26.51758,42.45834
					c11.43945,12.11475,25.27979,21.75433,41.48291,28.95541s34.4314,10.80164,54.7229,10.80164
					c19.99146,0,38.06958-3.60056,54.27271-10.80164s30.11841-16.84067,41.70801-28.95541
					c11.62744-12.11475,20.5542-26.255,26.78027-42.45834c6.18872-16.20245,9.30151-33.15576,9.30151-50.82239
					C2495.9519,367.12048,2495.50195,360.55673,2494.6394,354.10468z M2434.59033,408.11554
					c-3.90063,10.46371-9.30176,19.65372-16.20312,27.49213c-6.86353,7.87686-14.96533,13.99008-24.30444,18.4166
					c-9.30176,4.42557-19.39111,6.63882-30.19336,6.63882c-10.7644,0-20.854-2.21326-30.19312-6.63882
					c-9.302-4.42651-17.40332-10.46466-24.26733-18.15381c-6.90112-7.68915-12.30225-16.76559-16.20312-27.26776
					c-3.93823-10.46466-5.88867-21.90451-5.88867-34.35623c0-6.97672,0.67529-13.68973,2.06323-20.14178
					c0.9375-4.80011,2.32544-9.45187,4.05054-13.99008c4.08838-10.61484,9.56421-19.87805,16.46558-27.71738
					c6.86401-7.87689,14.96533-14.06519,24.30469-18.6785c9.302-4.57578,19.20361-6.86411,29.66821-6.86411
					c10.80225,0,20.8916,2.21326,30.19336,6.63882c9.33911,4.4256,17.44092,10.53973,24.30444,18.41571
					c6.90137,7.83932,12.30249,17.10345,16.20312,27.71829c1.72534,4.68839,3.07568,9.48849,4.01343,14.47723
					c1.27515,6.30188,1.87524,12.86563,1.87524,19.65372C2440.479,386.21103,2438.52856,397.65088,2434.59033,408.11554z"/>
				
					<linearGradient id="SVGID_00000009564857890065709670000004670257497776554122_" gradientUnits="userSpaceOnUse" x1="2658.95825" y1="251.44356" x2="2658.95825" y2="512.69751">
					<stop  offset="0" style="stop-color:#4DD34E"/>
					<stop  offset="1" style="stop-color:#165B16"/>
				</linearGradient>
				<path fill="url(#SVGID_00000009564857890065709670000004670257497776554122_)" d="M2789.70801,354.10468
					c-0.2998-2.17569-0.63745-4.31296-1.05005-6.45111c-0.1875-1.01276-0.37524-2.02554-0.6001-3.07584
					c0-0.03665,0-0.03665,0-0.0751c-0.2251-1.01276-0.4502-2.0246-0.67529-3.03738
					c-0.48755-2.10062-1.01245-4.20123-1.65015-6.30093c-0.30005-1.05124-0.6001-2.06308-0.90015-3.07584
					c-0.30029-1.01279-0.6377-2.02554-0.97534-3.0383c-0.67505-2.06308-1.3877-4.08862-2.17529-6.11417
					c-6.22632-16.20242-15.11548-30.34268-26.74243-42.45743c-11.62744-12.11475-25.54248-21.75433-41.74561-28.95541
					c-16.20312-7.202-34.28149-10.80254-54.23535-10.80254s-38.03247,3.60054-54.2356,10.80254
					c-16.20288,7.20108-30.11792,16.84067-41.74512,28.95541c-11.62744,12.11475-20.5542,26.255-26.74268,42.45743
					c-0.7876,2.02554-1.50024,4.05109-2.17554,6.11417c-0.33765,1.01276-0.67505,2.02551-0.9751,3.0383
					c-0.30005,1.01276-0.6001,2.0246-0.90015,3.07584c-0.6377,2.0997-1.16284,4.20032-1.65039,6.30093
					c-0.2251,1.01279-0.44995,2.02463-0.67505,3.03738c0,0.03845,0,0.03845,0,0.0751
					c-0.2251,1.05029-0.4126,2.06308-0.60034,3.07584c-0.41235,2.13815-0.74976,4.27542-1.05005,6.45111
					c-0.86255,6.45206-1.31274,13.01581-1.31274,19.65372c0,17.66663,3.11304,34.61993,9.33936,50.82239
					c6.18848,16.20334,15.04028,30.3436,26.47998,42.45834c11.47729,12.11475,25.31738,21.75433,41.52051,28.95541
					c16.16553,7.20108,34.43164,10.80164,54.7229,10.80164c19.95386,0,38.03223-3.60056,54.23535-10.80164
					s30.11816-16.84067,41.74561-28.95541c11.62695-12.11475,20.51611-26.255,26.74243-42.45834
					c6.22607-16.20245,9.33936-33.15576,9.33936-50.82239C2791.021,367.12048,2790.5708,360.55673,2789.70801,354.10468z
					 M2729.65918,408.11554c-3.93823,10.46371-9.33936,19.65372-16.20288,27.49213
					c-6.86401,7.87686-14.96558,13.99008-24.30493,18.4166c-9.33911,4.42557-19.39111,6.63882-30.19312,6.63882
					c-10.80225,0-20.854-2.21326-30.19336-6.63882c-9.33911-4.42651-17.44092-10.46466-24.30444-18.15381
					c-6.86401-7.68915-12.26489-16.76559-16.20312-27.26776c-3.93848-10.46466-5.88867-21.90451-5.88867-34.35623
					c0-6.97672,0.67505-13.68973,2.06274-20.14178c0.97534-4.80011,2.32544-9.45187,4.08838-13.99008
					c4.08813-10.61484,9.56445-19.87805,16.42798-27.71738c6.86401-7.87689,14.96558-14.06519,24.30493-18.6785
					c9.33911-4.57578,19.24097-6.86411,29.70557-6.86411c10.802,0,20.854,2.21326,30.19312,6.63882
					c9.33936,4.4256,17.44092,10.53973,24.30493,18.41571c6.86353,7.83932,12.26465,17.10345,16.20288,27.71829
					c1.72534,4.68839,3.07544,9.48849,3.97583,14.47723c1.27515,6.30188,1.91284,12.86563,1.91284,19.65372
					C2735.54785,386.21103,2733.56006,397.65088,2729.65918,408.11554z"/>
				
					<linearGradient id="SVGID_00000016780970290340171140000010238123561072228540_" gradientUnits="userSpaceOnUse" x1="2967.49219" y1="251.44356" x2="2967.49219" y2="512.69751">
					<stop  offset="0" style="stop-color:#4DD34E"/>
					<stop  offset="1" style="stop-color:#165B16"/>
				</linearGradient>
				<path fill="url(#SVGID_00000016780970290340171140000010238123561072228540_)" d="M3096.104,354.10468
					c-0.07495-0.44962-0.1123-0.90012-0.1875-1.34973c-0.1875-1.42575-0.4126-2.85059-0.67505-4.27634
					c-0.6001-3.56299-1.35034-7.0509-2.21313-10.53973c-0.3374-1.34973-0.67505-2.69949-1.08765-4.0126
					c-0.22485-0.90015-0.48755-1.80026-0.7876-2.66287c-0.86255-2.88812-1.83789-5.73868-2.88794-8.55173
					c-6.03882-16.05316-14.47803-30.11835-25.27979-42.23309c-10.802-12.11475-23.55469-21.75433-38.29492-28.95541
					c-14.70264-7.202-30.75586-10.80254-48.08423-10.80254c-19.65356,0-37.31958,4.57576-53.03516,13.72821
					c-15.71533,9.18907-28.46777,21.45396-38.29468,36.83138v-46.13309h-47.63403v361.30582h54.01025v-152.6915
					c9.48926,15.71527,22.01685,28.50488,37.54468,38.29465c15.56543,9.82733,33.64404,14.74008,54.27295,14.74008
					c16.69067,0,31.99341-3.52545,45.90869-10.53882c13.87769-7.05182,25.91724-16.54126,36.08179-28.5058
					c10.12695-11.92703,17.96582-25.99222,23.55469-42.19556c5.55103-16.20334,8.32642-33.6438,8.32642-52.28476
					C3097.3418,366.78256,3096.9292,360.36807,3096.104,354.10468z M3036.73047,405.67703
					c-3.75073,10.46463-8.92676,19.80386-15.45337,27.98016c-6.56372,8.17725-14.59009,14.70343-24.07935,19.61618
					c-9.48926,4.91367-19.80371,7.38971-30.90601,7.38971c-7.87646,0-15.56543-1.50082-23.06689-4.42648
					c-7.53882-2.96323-14.59009-6.86319-21.11646-11.77686c-6.56372-4.91367-12.45239-10.80255-17.70337-17.66571
					c-5.21362-6.90167-9.48926-14.25293-12.75244-22.09225v-67.2876c1.95044-7.20108,5.40088-13.80237,10.31445-19.87897
					c4.91333-6.03815,10.72705-11.36386,17.44092-15.94055c6.67627-4.57578,13.80249-8.1763,21.34155-10.80161
					c7.53882-2.62625,14.74023-3.93845,21.604-3.93845c11.13965,0,21.60425,2.28833,31.43115,6.86411
					c9.8269,4.61331,18.30347,10.80161,25.50488,18.6785c7.20117,7.83932,12.86475,17.02747,16.95312,27.4921
					c1.80029,4.61331,3.18799,9.34018,4.16333,14.21536c1.31274,6.18924,1.95044,12.56528,1.95044,19.16656
					C3042.35645,384.41077,3040.48096,395.21237,3036.73047,405.67703z"/>
			</g>
		</g>
		<g>
			
				<linearGradient id="SVGID_00000146470582050853648490000014798104201059471292_" gradientUnits="userSpaceOnUse" x1="1002.62347" y1="151.34079" x2="1002.62347" y2="354.10468">
				<stop  offset="0" style="stop-color:#FDFDFE;stop-opacity:0"/>
				<stop  offset="0.91037" style="stop-color:#FDFDFE;stop-opacity:0.36415"/>
				<stop  offset="1" style="stop-color:#FDFDFE;stop-opacity:0.4"/>
			</linearGradient>
			<path fill="url(#SVGID_00000146470582050853648490000014798104201059471292_)" d="M1151.13306,227.44295l-43.20813,28.99297
				c-4.57593-10.50128-10.31445-19.31583-17.17834-26.51691c-6.90137-7.20108-14.32776-12.9407-22.35425-17.17857
				c-8.02661-4.27632-16.27808-7.27617-24.79224-9.11398c-8.51416-1.76273-16.8407-2.66377-25.01721-2.66377
				c-17.70349,0-33.30634,3.67654-46.88391,11.0278c-13.61511,7.35126-24.97992,17.10257-34.13165,29.21822
				c-9.15179,12.11475-16.05298,25.69185-20.62897,40.73225c-4.57574,15.07794-6.86365,30.11835-6.86365,45.15875
				c0,9.26416,0.78754,18.26553,2.40033,27.00497h-56.07306c-1.50037-9.5636-2.28809-19.20319-2.28809-28.95541
				c0-20.92838,3.75073-41.8201,11.28967-62.59921c7.50146-20.77911,18.41614-39.42006,32.63129-55.96129
				c14.25269-16.54033,31.65607-29.85556,52.28497-40.01985c20.62897-10.12674,44.03339-15.22812,70.21332-15.22812
				c31.09357,0,57.83612,7.05182,80.26532,21.117C1123.22766,186.56052,1139.99353,204.86357,1151.13306,227.44295z"/>
			
				<linearGradient id="SVGID_00000002349525144894757760000017620777887818967183_" gradientUnits="userSpaceOnUse" x1="1314.58923" y1="240.72063" x2="1314.58923" y2="354.10468">
				<stop  offset="0" style="stop-color:#FDFDFE;stop-opacity:0"/>
				<stop  offset="0.91037" style="stop-color:#FDFDFE;stop-opacity:0.36415"/>
				<stop  offset="1" style="stop-color:#FDFDFE;stop-opacity:0.4"/>
			</linearGradient>
			<path fill="url(#SVGID_00000002349525144894757760000017620777887818967183_)" d="M1445.33923,354.10468h-56.03577
				c-0.93762-4.98874-2.28784-9.78885-4.01331-14.47723c-3.93823-10.61484-9.33923-19.87897-16.20312-27.71829
				c-6.86365-7.87598-14.96533-13.99011-24.30457-18.41571c-9.33923-4.42557-19.39111-6.63882-30.19324-6.63882
				c-10.46436,0-20.36633,2.28833-29.70557,6.86411c-9.30188,4.61331-17.40332,10.80161-24.30481,18.6785
				c-6.86365,7.83932-12.33972,17.10254-16.4281,27.71738c-1.72522,4.53821-3.11292,9.18997-4.08813,13.99008h-56.22327
				c0.29993-2.02551,0.6001-4.05106,0.97522-6.07568c0-0.11261,0.03735-0.26279,0.07495-0.37543
				c0.37512-2.06308,0.8252-4.12524,1.27527-6.18832c0.48767-1.98798,0.97522-3.97598,1.53772-5.92642
				c0-0.11264,0.0376-0.26279,0.11267-0.37451c0.5625-2.06308,1.2002-4.08862,1.87537-6.11414
				c0.67505-2.06308,1.3877-4.08862,2.17517-6.11417c6.22632-16.20242,15.11548-30.34268,26.74268-42.45743
				c11.62732-12.11475,25.54236-21.75433,41.74548-28.95541c16.20312-7.202,34.28162-10.80254,54.23535-10.80254
				c19.95386,0,38.06995,3.60054,54.27283,10.80254c16.16553,7.20108,30.08081,16.84067,41.70813,28.95541
				c11.62708,12.11475,20.55383,26.255,26.74243,42.45743c0.78772,2.02554,1.50037,4.05109,2.17542,6.11417
				c0.67517,2.02551,1.31287,4.05106,1.87537,6.11414c0.07507,0.11172,0.11267,0.26187,0.11267,0.37451
				c0.5625,1.95044,1.05005,3.93845,1.53772,5.92642c0.45007,2.06308,0.90015,4.12524,1.27527,6.18832
				c0.0376,0.11264,0.07495,0.26282,0.07495,0.37543C1444.73914,350.05362,1445.03906,352.07916,1445.33923,354.10468z"/>
			
				<linearGradient id="SVGID_00000038409775550448295600000012941812157152255130_" gradientUnits="userSpaceOnUse" x1="1565.47473" y1="242.67108" x2="1565.47473" y2="354.10468">
				<stop  offset="0" style="stop-color:#FDFDFE;stop-opacity:0"/>
				<stop  offset="0.91037" style="stop-color:#FDFDFE;stop-opacity:0.36415"/>
				<stop  offset="1" style="stop-color:#FDFDFE;stop-opacity:0.4"/>
			</linearGradient>
			<path fill="url(#SVGID_00000038409775550448295600000012941812157152255130_)" d="M1631.97485,242.67108
				c2.13794,0,4.01331,0.18771,5.66357,0.48715v48.61005c-20.96655,0.67487-39.45764,5.47589-55.47302,14.47723
				c-16.0531,9.00226-27.6803,21.86697-34.88184,38.55746v9.3017h-53.97266V245.14713h50.07202v57.42276
				c9.15173-17.66571,20.854-32.06879,35.10669-43.20831c14.21533-11.10197,29.36816-16.69049,45.38379-16.69049H1631.97485z"/>
			
				<linearGradient id="SVGID_00000124141542491786993130000009183741546832896656_" gradientUnits="userSpaceOnUse" x1="1793.63049" y1="240.72063" x2="1793.63049" y2="354.10468">
				<stop  offset="0" style="stop-color:#FDFDFE;stop-opacity:0"/>
				<stop  offset="0.91037" style="stop-color:#FDFDFE;stop-opacity:0.36415"/>
				<stop  offset="1" style="stop-color:#FDFDFE;stop-opacity:0.4"/>
			</linearGradient>
			<path fill="url(#SVGID_00000124141542491786993130000009183741546832896656_)" d="M1924.68054,354.10468h-52.39734
				c-0.97522-10.80161-3.67566-20.77911-8.10168-29.93063c-4.38831-9.15152-10.05188-16.95331-16.91553-23.32935
				c-6.90149-6.37601-14.8905-11.36478-24.07983-14.9653c-9.15173-3.60056-18.82837-5.40082-28.95532-5.40082
				c-10.12708,0-19.72888,1.80026-28.73059,5.40082c-9.00159,3.60052-16.91565,8.58929-23.77942,14.9653
				c-6.90149,6.37604-12.45239,14.17783-16.6908,23.32935c-4.27588,9.15152-6.90112,19.12903-7.87634,29.93063h-54.57312
				c0.30005-2.21234,0.67529-4.42557,1.12537-6.63882c0.29993-1.76273,0.67517-3.52545,1.08765-5.28818
				c0.33765-1.57501,0.75012-3.1134,1.16272-4.65085c0.26257-0.97522,0.52515-1.98801,0.82532-2.96323
				c0.44995-1.49991,0.93762-3.0383,1.42505-4.53821c0.22522-0.71243,0.4502-1.38821,0.71265-2.06308
				c0.56262-1.68765,1.2002-3.37527,1.83801-5.02631c6.37598-16.20242,15.37781-30.41779,27.005-42.72025
				c11.62732-12.26489,25.61743-21.90448,41.97046-28.9554c16.35327-7.01428,34.69409-10.53973,54.9856-10.53973
				c19.95386,0,38.0697,3.60054,54.27271,10.80254c16.20312,7.20108,30.00574,16.76559,41.48291,28.6926
				c11.43994,11.96457,20.17896,25.88049,26.255,41.74594c0.67517,1.80029,1.31299,3.60056,1.95056,5.43835
				c0.11255,0.33789,0.22498,0.6749,0.33765,1.01279c0.4873,1.57501,0.97498,3.18756,1.46252,4.80103
				c0.52515,1.91199,1.01282,3.78732,1.46289,5.70114c0.1875,0.6749,0.33765,1.3873,0.48755,2.0997
				c0.71265,3.1134,1.31274,6.26434,1.76282,9.45187C1924.38062,351.66708,1924.53064,352.90512,1924.68054,354.10468z"/>
			
				<linearGradient id="SVGID_00000029011842720825898650000004417461072120230810_" gradientUnits="userSpaceOnUse" x1="2000.63269" y1="153.3297" x2="2000.63269" y2="354.10468">
				<stop  offset="0" style="stop-color:#FDFDFE;stop-opacity:0"/>
				<stop  offset="0.91037" style="stop-color:#FDFDFE;stop-opacity:0.36415"/>
				<stop  offset="1" style="stop-color:#FDFDFE;stop-opacity:0.4"/>
			</linearGradient>
			
				<rect x="1973.14001" y="153.3297" fill="url(#SVGID_00000029011842720825898650000004417461072120230810_)" width="54.98539" height="200.77499"/>
			
				<linearGradient id="SVGID_00000070087134954449238990000000319849387257429434_" gradientUnits="userSpaceOnUse" x1="2363.9082" y1="240.72063" x2="2363.9082" y2="354.10468">
				<stop  offset="0" style="stop-color:#FDFDFE;stop-opacity:0"/>
				<stop  offset="0.91037" style="stop-color:#FDFDFE;stop-opacity:0.36415"/>
				<stop  offset="1" style="stop-color:#FDFDFE;stop-opacity:0.4"/>
			</linearGradient>
			<path fill="url(#SVGID_00000070087134954449238990000000319849387257429434_)" d="M2494.6394,354.10468h-56.03564
				c-0.93774-4.98874-2.28809-9.78885-4.01343-14.47723c-3.90063-10.61484-9.30176-19.87897-16.20312-27.71829
				c-6.86353-7.87598-14.96533-13.99011-24.30444-18.41571c-9.30176-4.42557-19.39111-6.63882-30.19336-6.63882
				c-10.4646,0-20.36621,2.28833-29.66821,6.86411c-9.33936,4.61331-17.44067,10.80161-24.30469,18.6785
				c-6.90137,7.83932-12.3772,17.10254-16.46558,27.71738c-1.7251,4.53821-3.11304,9.18997-4.05054,13.99008H2233.177
				c0.26245-2.02551,0.6001-4.05106,0.9751-6.07568c0-0.11261,0.0376-0.26279,0.0752-0.37543
				c0.375-2.06308,0.7876-4.12524,1.27515-6.18832c0.4502-2.02551,0.9751-4.05106,1.53784-6.03906
				c0-0.07507,0.0376-0.1868,0.07495-0.26187c0.5625-2.06308,1.2002-4.08862,1.87549-6.11414
				c0.67505-2.06308,1.3877-4.08862,2.17529-6.11417c6.22632-16.20242,15.15308-30.34268,26.78003-42.45743
				c11.58984-12.11475,25.50488-21.75433,41.70801-28.95541c16.20312-7.202,34.28149-10.80254,54.23535-10.80254
				c19.99146,0,38.06958,3.60054,54.27271,10.80254c16.20312,7.20108,30.11841,16.84067,41.70801,28.95541
				c11.62744,12.11475,20.5542,26.255,26.78027,42.45743c0.71265,1.83875,1.3501,3.67563,1.98779,5.55099
				c0.11255,0.33789,0.2251,0.67578,0.30005,0.97614c0.6377,1.87537,1.2002,3.78735,1.72534,5.70117
				c0.0752,0.11172,0.11255,0.26187,0.11255,0.37451c0.5625,1.95044,1.08765,3.93845,1.53784,5.92642
				c0.48755,2.06308,0.90015,4.12524,1.27539,6.18832c0.03711,0.11264,0.07471,0.26282,0.07471,0.37543
				C2494.03931,350.05362,2494.33911,352.07916,2494.6394,354.10468z"/>
			
				<linearGradient id="SVGID_00000139989164835862582320000013177640488850172295_" gradientUnits="userSpaceOnUse" x1="2658.95825" y1="240.72063" x2="2658.95825" y2="354.10468">
				<stop  offset="0" style="stop-color:#FDFDFE;stop-opacity:0"/>
				<stop  offset="0.91037" style="stop-color:#FDFDFE;stop-opacity:0.36415"/>
				<stop  offset="1" style="stop-color:#FDFDFE;stop-opacity:0.4"/>
			</linearGradient>
			<path fill="url(#SVGID_00000139989164835862582320000013177640488850172295_)" d="M2789.70801,354.10468h-56.073
				c-0.90039-4.98874-2.25049-9.78885-3.97583-14.47723c-3.93823-10.61484-9.33936-19.87897-16.20288-27.71829
				c-6.86401-7.87598-14.96558-13.99011-24.30493-18.41571c-9.33911-4.42557-19.39111-6.63882-30.19312-6.63882
				c-10.4646,0-20.36646,2.28833-29.70557,6.86411c-9.33936,4.61331-17.44092,10.80161-24.30493,18.6785
				c-6.86353,7.83932-12.33984,17.10254-16.42798,27.71738c-1.76294,4.53821-3.11304,9.18997-4.08838,13.99008h-56.22314
				c0.30029-2.17569,0.6377-4.31296,1.05005-6.45111c0.18774-1.01276,0.37524-2.02554,0.60034-3.07584c0-0.03665,0-0.03665,0-0.0751
				c0.2251-1.01276,0.44995-2.0246,0.67505-3.03738c0.48755-2.10062,1.0127-4.20123,1.65039-6.30093
				c0.30005-1.05124,0.6001-2.06308,0.90015-3.07584c0.30005-1.01279,0.63745-2.02554,0.9751-3.0383
				c0.67529-2.06308,1.38794-4.08862,2.17554-6.11417c6.18848-16.20242,15.11523-30.34268,26.74268-42.45743
				c11.6272-12.11475,25.54224-21.75433,41.74512-28.95541c16.20312-7.202,34.28174-10.80254,54.2356-10.80254
				s38.03223,3.60054,54.23535,10.80254c16.20312,7.20108,30.11816,16.84067,41.74561,28.95541
				c11.62695,12.11475,20.51611,26.255,26.74243,42.45743c0.7876,2.02554,1.50024,4.05109,2.17529,6.11417
				c0.33765,1.01276,0.67505,2.02551,0.97534,3.0383c0.30005,1.01276,0.6001,2.0246,0.90015,3.07584
				c0.6377,2.0997,1.1626,4.20032,1.65015,6.30093c0.2251,1.01279,0.4502,2.02463,0.67529,3.03738c0,0.03845,0,0.03845,0,0.0751
				c0.22485,1.05029,0.4126,2.06308,0.6001,3.07584C2789.07056,349.79172,2789.4082,351.92899,2789.70801,354.10468z"/>
			
				<linearGradient id="SVGID_00000028314046501508977250000006629802140371651258_" gradientUnits="userSpaceOnUse" x1="2966.87329" y1="240.72063" x2="2966.87329" y2="354.10468">
				<stop  offset="0" style="stop-color:#FDFDFE;stop-opacity:0"/>
				<stop  offset="0.91037" style="stop-color:#FDFDFE;stop-opacity:0.36415"/>
				<stop  offset="1" style="stop-color:#FDFDFE;stop-opacity:0.4"/>
			</linearGradient>
			<path fill="url(#SVGID_00000028314046501508977250000006629802140371651258_)" d="M3096.104,354.10468h-55.698
				c-0.97534-4.87518-2.36304-9.60205-4.16333-14.21536c-4.08838-10.46463-9.75195-19.65277-16.95312-27.4921
				c-7.20142-7.87689-15.67798-14.06519-25.50488-18.6785c-9.8269-4.57578-20.2915-6.86411-31.43115-6.86411
				c-6.86377,0-14.06519,1.31219-21.604,3.93845c-7.53906,2.62531-14.66528,6.22583-21.34155,10.80161
				c-6.71387,4.57669-12.52759,9.9024-17.44092,15.94055c-4.91357,6.0766-8.36401,12.67789-10.31445,19.87897v16.69049h-54.01025
				V245.14713h47.63403v46.13309c9.8269-15.37741,22.57935-27.6423,38.29468-36.83138
				c15.71558-9.15245,33.38159-13.72821,53.03516-13.72821c17.32837,0,33.38159,3.60054,48.08423,10.80254
				c14.74023,7.20108,27.49292,16.84067,38.29492,28.95541c10.80176,12.11475,19.24097,26.17993,25.27979,42.23309
				c1.05005,2.81305,2.02539,5.6636,2.88794,8.55173c0.30005,0.86261,0.56274,1.76273,0.7876,2.66287
				c0.4126,1.31311,0.75024,2.66287,1.08765,4.0126c0.90039,3.45129,1.61304,6.97675,2.21313,10.53973
				c0.26245,1.42575,0.48755,2.85059,0.67505,4.27634C3095.9917,353.20456,3096.02905,353.65506,3096.104,354.10468z"/>
		</g>
	</g>
</g>
</svg>
